<?xml version="1.0" encoding="UTF-8" standalone="no"?>
<!-- Created with Inkscape (http://www.inkscape.org/) -->

<svg
   xmlns:dc="http://purl.org/dc/elements/1.1/"
   xmlns:cc="http://creativecommons.org/ns#"
   xmlns:rdf="http://www.w3.org/1999/02/22-rdf-syntax-ns#"
   xmlns:svg="http://www.w3.org/2000/svg"
   xmlns="http://www.w3.org/2000/svg"
   xmlns:sodipodi="http://sodipodi.sourceforge.net/DTD/sodipodi-0.dtd"
   xmlns:inkscape="http://www.inkscape.org/namespaces/inkscape"
   width="210mm"
   height="297mm"
   viewBox="0 0 744.09448819 1052.3622047"
   id="svg4310"
   version="1.1"
   inkscape:version="0.91 r13725"
   sodipodi:docname="b_logo.svg">
  <defs
     id="defs4312" />
  <sodipodi:namedview
     id="base"
     pagecolor="#ffffff"
     bordercolor="#666666"
     borderopacity="1.0"
     inkscape:pageopacity="0.0"
     inkscape:pageshadow="2"
     inkscape:zoom="0.35"
     inkscape:cx="375"
     inkscape:cy="520"
     inkscape:document-units="px"
     inkscape:current-layer="layer1"
     showgrid="false"
     showborder="false"
     inkscape:window-width="1600"
     inkscape:window-height="1138"
     inkscape:window-x="-8"
     inkscape:window-y="-8"
     inkscape:window-maximized="1" />
  <metadata
     id="metadata4315">
    <rdf:RDF>
      <cc:Work
         rdf:about="">
        <dc:format>image/svg+xml</dc:format>
        <dc:type
           rdf:resource="http://purl.org/dc/dcmitype/StillImage" />
        <dc:title></dc:title>
      </cc:Work>
    </rdf:RDF>
  </metadata>
  <g
     inkscape:label="Layer 1"
     inkscape:groupmode="layer"
     id="layer1">
    <path
       style="opacity:1;fill:#000000;fill-opacity:1;stroke:none;stroke-width:0;stroke-linejoin:miter;stroke-miterlimit:4;stroke-dasharray:none;stroke-opacity:1"
       id="path4858"
       d="M -23.908692,53.047508 C -57.352329,130.62521 -104.38662,201.1913 -151.97597,270.61518 c -7.9029,11.11099 -15.80581,22.22199 -23.70871,33.33298 0,0 -31.70878,13.72126 -31.70878,13.72126 l 0,0 c 8.37477,-11.28888 16.74953,-22.57776 25.1243,-33.86664 46.93084,-66.86408 94.255092,-135.41146 120.709636,-213.424579 0,0 37.650832,-17.330693 37.650832,-17.330693 z"
       inkscape:connector-curvature="0" />
    <path
       style="opacity:1;fill:#000000;fill-opacity:1;stroke:none;stroke-width:0;stroke-linejoin:miter;stroke-miterlimit:4;stroke-dasharray:none;stroke-opacity:1"
       id="path4860"
       d="M -136.79138,50.886101 C -96.732784,42.029218 -57.001276,31.801005 -17.341678,21.316697 12.195793,13.689001 41.594944,5.032752 71.936682,1.26906 87.30864,-0.79969077 103.12828,2.4061558 115.34785,12.502421 c 2.98079,2.462838 5.35579,5.578373 8.03369,8.367559 11.10959,13.642612 17.62311,30.631151 18.67221,48.243526 0.20288,3.405952 -0.0678,6.823642 -0.1017,10.235463 -2.21353,17.949282 -4.35086,37.868601 -16.15328,52.517011 -3.08508,3.82901 -6.9242,6.98367 -10.3863,10.47551 -5.09302,3.50869 -9.9447,7.39649 -15.27906,10.52608 -17.22314,10.10455 -34.656294,19.86536 -52.338135,29.14389 -6.49617,3.40886 -13.378481,6.028 -20.135006,8.8863 -15.581832,6.5918 -31.4870914,12.35037 -47.206586,18.59413 -2.398155,1.1013 -9.479437,4.62411 -7.194465,3.30391 11.21795,-6.48144 22.6329899,-12.61666 34.017211,-18.80139 0.5598528,-0.30416 1.1664882,-0.75468 1.7957507,-0.65481 2.4694783,0.3919 4.7997733,1.40375 7.2060193,2.08338 9.818071,2.77304 13.463543,3.71629 23.789359,6.49615 13.641891,3.26778 27.052554,7.6421 39.054513,15.08456 14.058513,8.71773 26.234769,19.9433 38.233589,31.19793 15.14247,14.31433 27.09794,30.90315 33.61745,50.71035 0.6996,4.88636 1.68727,8.72771 0.504,13.73095 -5.06592,21.4202 -26.68818,34.30743 -43.05385,46.20205 -38.49668,23.45306 -77.283142,47.26581 -120.852781,59.93129 -17.312605,5.03269 -28.242939,6.68787 -45.78902,10.01619 -35.04468,5.77811 -70.610949,6.8932 -106.055979,7.2293 -25.53106,0.82485 -51.07622,-2.68028 -75.20452,-11.21159 -5.42868,-1.91947 -10.67648,-4.31655 -16.01472,-6.47483 -10.79368,-5.50447 -21.15293,-9.87763 -30.21561,-18.28746 -10.08779,-9.36108 -19.30383,-23.34901 -24.74701,-35.82348 -8.6712,-19.87232 -9.0395,-30.09216 -12.75281,-51.56549 0.48131,-12.50944 0.0372,-25.08892 1.44392,-37.52833 7.91251,-69.96738 34.79487,-131.2492 79.86802,-185.446697 12.10323,-14.553335 26.32005,-27.210393 39.48008,-40.81559 14.07747,-11.194785 27.52993,-23.224071 42.2324,-33.584357 13.52534,-9.5307963 27.85915,-17.896721 42.29636,-25.979897 37.701212,-21.108347 64.161396,-36.328802 102.719062,-49.313098 25.232878,-8.497173 35.685382,-9.62121 61.04375,-14.394101 10.010969,0.323122 20.097853,-0.30287 30.032909,0.969365 24.687599,3.161375 45.316689,10.677283 67.836369,21.402023 12.71776,6.056685 25.32946,12.510852 37.05259,20.320652 30.26185,20.160059 40.96444,33.6702879 66.16956,59.309926 8.21206,12.329839 17.55612,23.976617 24.63619,36.989519 7.33146,13.474964 12.9669,27.834747 18.43214,42.168495 17.95336,47.08653 26.33837,95.07352 33.16157,144.66471 2.02985,19.70126 4.84667,39.70293 3.4124,59.58102 -0.84594,11.72416 -2.77055,18.52483 -5.28186,29.7886 0,0 -36.05243,17.31548 -36.05243,17.31548 l 0,0 c 2.97638,-11.63486 4.79981,-17.06637 6.05871,-29.25935 2.06708,-20.02057 0.33213,-40.30761 -0.78341,-60.30227 -1.00037,-9.97974 -1.71813,-19.99186 -3.0011,-29.93921 C 280.77259,186.07335 267.87815,128.5155 242.24009,81.795054 235.21535,68.993827 226.01069,57.515846 217.896,45.376242 192.10583,19.077662 183.40744,7.2811822 151.99442,-12.877792 122.08045,-32.074772 81.686211,-48.1593 46.030904,-51.818395 c -9.871257,-1.01303 -19.845633,-0.150419 -29.76845,-0.225629 -25.6223131,4.723691 -33.707006,5.348217 -59.350546,13.94708 -11.424937,3.831041 -22.344833,9.052304 -33.709936,13.05736 -3.376153,1.189755 -7.280063,0.826719 -10.443374,2.502244 -42.225428,22.36573715 -47.753348,29.4569798 -86.049488,59.294578 -13.13956,13.421415 -27.33207,25.88731 -39.41867,40.264245 -44.12219,52.483027 -71.55371,113.602867 -77.39115,182.060127 -1.02045,11.96713 -0.083,24.02097 -0.12449,36.03146 3.83531,20.87318 4.24667,30.74345 12.99178,49.93909 12.17174,26.71718 28.51663,39.58103 54.49024,51.3273 13.99308,5.43461 17.40156,7.30644 32.0011,10.80392 19.24573,4.61053 39.05044,5.52499 58.7635,5.33439 34.875831,-0.22819 69.875791,-0.97205 104.348499,-6.84456 23.2449197,-4.48127 45.786073,-9.44746 67.905591,-18.15031 7.578625,-2.98179 14.392072,-8.18019 22.36707,-9.83125 4.244808,-0.8788 -14.608105,9.25647 -10.684939,7.41271 7.248,-3.40633 13.823439,-8.09066 20.735159,-12.13599 15.1052,-10.7074 35.86393,-22.55721 41.67423,-41.7914 1.29508,-4.28715 0.52887,-8.028 0.1081,-12.30349 C 109.09782,299.09782 98.148273,283.41321 83.595696,269.02784 79.775441,265.41086 76.109952,261.62306 72.13493,258.17689 53.210824,241.77048 31.738292,229.73856 7.0637062,224.66476 c -0.3879595,-0.093 -22.9834082,-5.49252 -24.8125892,-5.98265 -2.866194,-0.76799 -5.927218,-1.12891 -8.524959,-2.563 -2.058162,-1.13622 -6.787491,-3.35005 -5.045165,-4.92844 19.337674,-17.51823 26.5040392,-19.86414 43.608665,-26.65599 15.266791,-5.60467 30.556712,-11.07507 45.497946,-17.52742 6.751389,-2.91558 12.730309,-9.33741 20.081586,-9.136 5.675135,0.15549 -19.312517,11.90699 -14.271707,9.29518 5.232151,-2.71095 9.898975,-6.39601 14.848462,-9.59402 8.382719,-7.69165 11.740745,-9.37893 17.05545,-19.17094 6.680895,-12.30913 7.970135,-27.03044 10.000355,-40.584552 0.11749,-3.237491 0.46799,-6.474912 0.35245,-9.712474 C 105.25549,71.327883 99.212735,55.104057 88.722643,42.076625 86.191598,39.585656 83.94683,36.765618 81.129508,34.603717 69.021225,25.312301 53.670067,23.967165 39.074442,25.778302 9.8082845,29.504828 -18.774572,36.996331 -47.315929,44.29361 -88.389251,55.019037 -129.45562,65.80386 -170.65906,76.011924 c 0,0 33.86768,-25.125823 33.86768,-25.125823 z"
       inkscape:connector-curvature="0" />
  </g>
</svg>
